<mxfile host="app.diagrams.net" modified="2023-03-29T06:20:02.946Z" agent="Mozilla/5.0 (Windows NT 10.0; Win64; x64) AppleWebKit/537.36 (KHTML, like Gecko) Chrome/111.0.0.0 Safari/537.36" version="21.1.1" etag="JfyM7Zq3tw9j9-_FzhVS" type="github">
  <diagram name="페이지-1" id="k3k0_WnCMX7VFxOdx8Q2">
    <mxGraphModel>
      <root>
        <mxCell id="0" />
        <mxCell id="1" parent="0" />
      </root>
    </mxGraphModel>
  </diagram>
</mxfile>
